<svg width="35" height="28" viewBox="0 0 35 28" fill="none" xmlns="http://www.w3.org/2000/svg">
<mask id="path-1-outside-1_67_2" maskUnits="userSpaceOnUse" x="0" y="0" width="35" height="28" fill="black">
<rect fill="white" width="35" height="28"/>
<path d="M9.88 26.6C8.78667 26.6 7.74667 26.4267 6.76 26.08C5.77333 25.7067 4.89333 25.24 4.12 24.68C3.37333 24.12 2.77333 23.5333 2.32 22.92C1.89333 22.3067 1.68 21.7467 1.68 21.24C1.68 20.3867 1.70667 19.5867 1.76 18.84C1.81333 18.0933 1.92 17.2667 2.08 16.36L6.04 17.08C5.93333 17.8267 5.85333 18.5733 5.8 19.32C5.74667 20.0667 5.72 20.9067 5.72 21.84C5.72 22.3467 5.81333 22.7067 6 22.92C6.21333 23.1333 6.56 23.24 7.04 23.24C8.13333 23.24 8.94667 22.96 9.48 22.4C10.04 21.84 10.32 20.6933 10.32 18.96C10.32 18.2933 10.3067 17.56 10.28 16.76C10.2533 15.96 10.24 14.8933 10.24 13.56V11.44C10.24 10.16 10.28 8.90667 10.36 7.68C10.4667 6.45333 10.6267 5.48 10.84 4.76H8.16L6.12 2.12L6.4 1.44H12.76L15 4.56C14.52 6.26667 14.28 8.62667 14.28 11.64V13.32C14.28 14.9733 14.2933 16.4 14.32 17.6C14.3467 18.8 14.36 19.9067 14.36 20.92C14.36 24.7067 12.8667 26.6 9.88 26.6ZM28.1106 26.44C26.9106 26.44 25.7373 26.3467 24.5906 26.16C23.444 25.9733 22.4173 25.7467 21.5106 25.48C20.6306 25.2133 19.924 24.9333 19.3906 24.64C18.8573 24.3467 18.5906 24.08 18.5906 23.84C18.5906 23.1733 18.6706 22.24 18.8306 21.04C19.0173 19.84 19.1106 18.1867 19.1106 16.08V11.64C19.1106 9.88 19.1773 8.45333 19.3106 7.36C19.4706 6.24 19.6306 5.37333 19.7906 4.76H18.4306L16.4306 2.08L16.7506 1.44H19.9506C21.204 1.44 22.204 1.41333 22.9506 1.36C23.724 1.30667 24.4973 1.28 25.2706 1.28C25.964 1.28 26.724 1.49333 27.5506 1.92C28.3773 2.34667 29.164 2.89333 29.9106 3.56C30.684 4.22667 31.3106 4.92 31.7906 5.64C32.2973 6.33333 32.5506 6.94667 32.5506 7.48V9.28C32.5506 10.5067 32.3506 11.6 31.9506 12.56C31.5773 13.52 31.0173 14.2667 30.2706 14.8C31.3106 15.5733 32.0706 16.3867 32.5506 17.24C33.0573 18.0667 33.3106 19 33.3106 20.04V20.84C33.3106 22.7067 32.844 24.1067 31.9106 25.04C31.004 25.9733 29.7373 26.44 28.1106 26.44ZM26.9506 4.76C26.4706 4.76 25.964 4.78666 25.4306 4.84C24.924 4.86667 24.404 4.92 23.8706 5C23.684 5.72 23.5106 6.61333 23.3506 7.68C23.2173 8.72 23.1506 9.94667 23.1506 11.36V12.12H25.5906C26.1773 12.12 26.6973 12.04 27.1506 11.88C27.604 11.6933 27.9506 11.3333 28.1906 10.8C28.4573 10.2667 28.5906 9.46667 28.5906 8.4V6.8C28.5906 6 28.4706 5.46667 28.2306 5.2C27.9906 4.90667 27.564 4.76 26.9506 4.76ZM23.1506 17.88C23.1506 18.9733 23.124 19.9333 23.0706 20.76C23.0173 21.56 22.9506 22.2933 22.8706 22.96C23.5373 23.12 24.1906 23.2 24.8306 23.2C26.4573 23.2 27.5773 22.84 28.1906 22.12C28.8306 21.4 29.1506 20.4533 29.1506 19.28V18.64C29.1506 17.2 28.8573 16.2933 28.2706 15.92C27.684 15.52 26.8973 15.32 25.9106 15.32H23.1506V17.88Z"/>
</mask>
<path d="M9.88 26.6C8.78667 26.6 7.74667 26.4267 6.76 26.08C5.77333 25.7067 4.89333 25.24 4.12 24.68C3.37333 24.12 2.77333 23.5333 2.32 22.92C1.89333 22.3067 1.68 21.7467 1.68 21.24C1.68 20.3867 1.70667 19.5867 1.76 18.84C1.81333 18.0933 1.92 17.2667 2.08 16.36L6.04 17.08C5.93333 17.8267 5.85333 18.5733 5.8 19.32C5.74667 20.0667 5.72 20.9067 5.72 21.84C5.72 22.3467 5.81333 22.7067 6 22.92C6.21333 23.1333 6.56 23.24 7.04 23.24C8.13333 23.24 8.94667 22.96 9.48 22.4C10.04 21.84 10.32 20.6933 10.32 18.96C10.32 18.2933 10.3067 17.56 10.28 16.76C10.2533 15.96 10.24 14.8933 10.24 13.56V11.44C10.24 10.16 10.28 8.90667 10.36 7.68C10.4667 6.45333 10.6267 5.48 10.84 4.76H8.16L6.12 2.12L6.4 1.44H12.76L15 4.56C14.52 6.26667 14.28 8.62667 14.28 11.64V13.32C14.28 14.9733 14.2933 16.4 14.32 17.6C14.3467 18.8 14.36 19.9067 14.36 20.92C14.36 24.7067 12.8667 26.6 9.88 26.6ZM28.1106 26.44C26.9106 26.44 25.7373 26.3467 24.5906 26.16C23.444 25.9733 22.4173 25.7467 21.5106 25.48C20.6306 25.2133 19.924 24.9333 19.3906 24.64C18.8573 24.3467 18.5906 24.08 18.5906 23.84C18.5906 23.1733 18.6706 22.24 18.8306 21.04C19.0173 19.84 19.1106 18.1867 19.1106 16.08V11.64C19.1106 9.88 19.1773 8.45333 19.3106 7.36C19.4706 6.24 19.6306 5.37333 19.7906 4.76H18.4306L16.4306 2.08L16.7506 1.44H19.9506C21.204 1.44 22.204 1.41333 22.9506 1.36C23.724 1.30667 24.4973 1.28 25.2706 1.28C25.964 1.28 26.724 1.49333 27.5506 1.92C28.3773 2.34667 29.164 2.89333 29.9106 3.56C30.684 4.22667 31.3106 4.92 31.7906 5.64C32.2973 6.33333 32.5506 6.94667 32.5506 7.48V9.28C32.5506 10.5067 32.3506 11.6 31.9506 12.56C31.5773 13.52 31.0173 14.2667 30.2706 14.8C31.3106 15.5733 32.0706 16.3867 32.5506 17.24C33.0573 18.0667 33.3106 19 33.3106 20.04V20.84C33.3106 22.7067 32.844 24.1067 31.9106 25.04C31.004 25.9733 29.7373 26.44 28.1106 26.44ZM26.9506 4.76C26.4706 4.76 25.964 4.78666 25.4306 4.84C24.924 4.86667 24.404 4.92 23.8706 5C23.684 5.72 23.5106 6.61333 23.3506 7.68C23.2173 8.72 23.1506 9.94667 23.1506 11.36V12.12H25.5906C26.1773 12.12 26.6973 12.04 27.1506 11.88C27.604 11.6933 27.9506 11.3333 28.1906 10.8C28.4573 10.2667 28.5906 9.46667 28.5906 8.4V6.8C28.5906 6 28.4706 5.46667 28.2306 5.2C27.9906 4.90667 27.564 4.76 26.9506 4.76ZM23.1506 17.88C23.1506 18.9733 23.124 19.9333 23.0706 20.76C23.0173 21.56 22.9506 22.2933 22.8706 22.96C23.5373 23.12 24.1906 23.2 24.8306 23.2C26.4573 23.2 27.5773 22.84 28.1906 22.12C28.8306 21.4 29.1506 20.4533 29.1506 19.28V18.64C29.1506 17.2 28.8573 16.2933 28.2706 15.92C27.684 15.52 26.8973 15.32 25.9106 15.32H23.1506V17.88Z" fill="#151515"/>
<path d="M6.76 26.08L6.40611 27.0153L6.41726 27.0195L6.42851 27.0235L6.76 26.08ZM4.12 24.68L3.52 25.48L3.5267 25.485L3.53349 25.4899L4.12 24.68ZM2.32 22.92L1.49909 23.4911L1.50729 23.5028L1.51582 23.5144L2.32 22.92ZM2.08 16.36L2.25889 15.3761L1.2699 15.1963L1.09522 16.1862L2.08 16.36ZM6.04 17.08L7.02995 17.2214L7.1661 16.2684L6.21889 16.0961L6.04 17.08ZM5.8 19.32L4.80254 19.2488L4.80254 19.2488L5.8 19.32ZM6 22.92L5.24742 23.5785L5.26935 23.6036L5.29289 23.6271L6 22.92ZM9.48 22.4L8.77289 21.6929L8.76427 21.7015L8.75586 21.7103L9.48 22.4ZM10.36 7.68L9.36376 7.59337L9.36282 7.60414L9.36212 7.61492L10.36 7.68ZM10.84 4.76L11.7988 5.04409L12.1793 3.76H10.84V4.76ZM8.16 4.76L7.36872 5.37145L7.66896 5.76H8.16V4.76ZM6.12 2.12L5.19532 1.73925L4.97517 2.27391L5.32872 2.73145L6.12 2.12ZM6.4 1.44V0.439998H5.73031L5.47532 1.05925L6.4 1.44ZM12.76 1.44L13.5723 0.856791L13.2731 0.439998H12.76V1.44ZM15 4.56L15.9627 4.83074L16.0929 4.36761L15.8123 3.97679L15 4.56ZM14.32 17.6L13.3202 17.6222L13.3202 17.6222L14.32 17.6ZM9.88 25.6C8.89438 25.6 7.96686 25.4441 7.09149 25.1365L6.42851 27.0235C7.52648 27.4092 8.67896 27.6 9.88 27.6V25.6ZM7.11389 25.1447C6.20141 24.7994 5.40114 24.3731 4.70651 23.8701L3.53349 25.4899C4.38553 26.1069 5.34526 26.6139 6.40611 27.0153L7.11389 25.1447ZM4.72 23.88C4.03433 23.3657 3.50859 22.8457 3.12418 22.3256L1.51582 23.5144C2.03808 24.221 2.71233 24.8742 3.52 25.48L4.72 23.88ZM3.14091 22.3489C2.77833 21.8277 2.68 21.4666 2.68 21.24H0.68C0.68 22.0267 1.00833 22.7856 1.49909 23.4911L3.14091 22.3489ZM2.68 21.24C2.68 20.4072 2.70603 19.6312 2.75746 18.9112L0.762541 18.7688C0.7073 19.5421 0.68 20.3661 0.68 21.24H2.68ZM2.75746 18.9112C2.80786 18.2057 2.90947 17.4139 3.06478 16.5338L1.09522 16.1862C0.930529 17.1194 0.818811 17.981 0.762541 18.7688L2.75746 18.9112ZM1.90111 17.3439L5.86111 18.0639L6.21889 16.0961L2.25889 15.3761L1.90111 17.3439ZM5.05005 16.9386C4.94008 17.7084 4.85756 18.4784 4.80254 19.2488L6.79746 19.3912C6.8491 18.6682 6.92659 17.945 7.02995 17.2214L5.05005 16.9386ZM4.80254 19.2488C4.74716 20.0241 4.72 20.8884 4.72 21.84H6.72C6.72 20.9249 6.74617 20.1093 6.79746 19.3912L4.80254 19.2488ZM4.72 21.84C4.72 22.4174 4.8162 23.0857 5.24742 23.5785L6.75258 22.2615C6.78869 22.3028 6.7773 22.3135 6.758 22.239C6.73867 22.1645 6.72 22.037 6.72 21.84H4.72ZM5.29289 23.6271C5.77883 24.113 6.44598 24.24 7.04 24.24V22.24C6.86951 22.24 6.76705 22.2205 6.71409 22.2042C6.66533 22.1892 6.67731 22.1831 6.70711 22.2129L5.29289 23.6271ZM7.04 24.24C8.29162 24.24 9.41503 23.9182 10.2041 23.0897L8.75586 21.7103C8.4783 22.0018 7.97504 22.24 7.04 22.24V24.24ZM10.1871 23.1071C10.6452 22.649 10.9179 22.0271 11.0815 21.3572C11.247 20.6793 11.32 19.873 11.32 18.96H9.32C9.32 19.7803 9.253 20.4141 9.13854 20.8828C9.02212 21.3596 8.87483 21.591 8.77289 21.6929L10.1871 23.1071ZM11.32 18.96C11.32 18.2803 11.3064 17.5357 11.2794 16.7267L9.28056 16.7933C9.30692 17.5843 9.32 18.3064 9.32 18.96H11.32ZM11.2794 16.7267C11.2533 15.9426 11.24 14.8885 11.24 13.56H9.24C9.24 14.8982 9.25336 15.9774 9.28056 16.7933L11.2794 16.7267ZM11.24 13.56V11.44H9.24V13.56H11.24ZM11.24 11.44C11.24 10.1808 11.2793 8.94921 11.3579 7.74508L9.36212 7.61492C9.28065 8.86412 9.24 10.1392 9.24 11.44H11.24ZM11.3562 7.76663C11.4603 6.57025 11.6127 5.67206 11.7988 5.04409L9.8812 4.47591C9.6406 5.28794 9.47306 6.33642 9.36376 7.59337L11.3562 7.76663ZM10.84 3.76H8.16V5.76H10.84V3.76ZM8.95129 4.14855L6.91129 1.50855L5.32872 2.73145L7.36872 5.37145L8.95129 4.14855ZM7.04468 2.50075L7.32468 1.82075L5.47532 1.05925L5.19532 1.73925L7.04468 2.50075ZM6.4 2.44H12.76V0.439998H6.4V2.44ZM11.9477 2.0232L14.1877 5.1432L15.8123 3.97679L13.5723 0.856791L11.9477 2.0232ZM14.0373 4.28925C13.5212 6.12433 13.28 8.58945 13.28 11.64H15.28C15.28 8.66388 15.5188 6.409 15.9627 4.83074L14.0373 4.28925ZM13.28 11.64V13.32H15.28V11.64H13.28ZM13.28 13.32C13.28 14.9782 13.2934 16.4126 13.3202 17.6222L15.3198 17.5778C15.2933 16.3874 15.28 14.9685 15.28 13.32H13.28ZM13.3202 17.6222C13.3468 18.8161 13.36 19.9153 13.36 20.92H15.36C15.36 19.8981 15.3466 18.7839 15.3198 17.5778L13.3202 17.6222ZM13.36 20.92C13.36 22.7089 13.0027 23.8661 12.4548 24.5607C11.9426 25.2101 11.1477 25.6 9.88 25.6V27.6C11.599 27.6 13.044 27.0432 14.0252 25.7993C14.9706 24.6006 15.36 22.9177 15.36 20.92H13.36ZM24.5906 26.16L24.7513 25.173L24.7513 25.173L24.5906 26.16ZM21.5106 25.48L21.2206 26.4371L21.2285 26.4394L21.5106 25.48ZM19.3906 24.64L19.8725 23.7638L19.8725 23.7638L19.3906 24.64ZM18.8306 21.04L17.8425 20.8863L17.8408 20.897L17.8394 20.9078L18.8306 21.04ZM19.3106 7.36L18.3207 7.21858L18.3192 7.22875L18.318 7.23894L19.3106 7.36ZM19.7906 4.76L20.7582 5.01242L21.085 3.76H19.7906V4.76ZM18.4306 4.76L17.6292 5.35808L17.9291 5.76H18.4306V4.76ZM16.4306 2.08L15.5362 1.63279L15.2605 2.18409L15.6292 2.67808L16.4306 2.08ZM16.7506 1.44V0.439998H16.1326L15.8562 0.992785L16.7506 1.44ZM22.9506 1.36L22.8818 0.362365L22.8794 0.36254L22.9506 1.36ZM27.5506 1.92L28.0093 1.03138L28.0093 1.03138L27.5506 1.92ZM29.9106 3.56L29.2446 4.30594L29.2511 4.31173L29.2577 4.31741L29.9106 3.56ZM31.7906 5.64L30.9586 6.1947L30.9705 6.21262L30.9832 6.23001L31.7906 5.64ZM31.9506 12.56L31.0275 12.1754L31.023 12.1864L31.0186 12.1976L31.9506 12.56ZM30.2706 14.8L29.6894 13.9863L28.5729 14.7838L29.6739 15.6025L30.2706 14.8ZM32.5506 17.24L31.6791 17.7303L31.6882 17.7466L31.698 17.7626L32.5506 17.24ZM31.9106 25.04L31.2035 24.3329L31.1984 24.338L31.1933 24.3432L31.9106 25.04ZM25.4306 4.84L25.4832 5.83862L25.5067 5.83738L25.5301 5.83504L25.4306 4.84ZM23.8706 5L23.7223 4.01106L23.0685 4.10913L22.9026 4.74904L23.8706 5ZM23.3506 7.68L22.3617 7.53166L22.3601 7.54223L22.3587 7.55284L23.3506 7.68ZM23.1506 12.12H22.1506V13.12H23.1506V12.12ZM27.1506 11.88L27.4834 12.823L27.5076 12.8144L27.5314 12.8047L27.1506 11.88ZM28.1906 10.8L27.2962 10.3528L27.2871 10.371L27.2787 10.3896L28.1906 10.8ZM28.2306 5.2L27.4567 5.83324L27.4716 5.85146L27.4873 5.86896L28.2306 5.2ZM23.0706 20.76L24.0684 20.8265L24.0686 20.8244L23.0706 20.76ZM22.8706 22.96L21.8777 22.8409L21.7717 23.7247L22.6373 23.9324L22.8706 22.96ZM28.1906 22.12L27.4432 21.4556L27.4362 21.4635L27.4294 21.4715L28.1906 22.12ZM28.2706 15.92L27.7073 16.7462L27.7204 16.7552L27.7338 16.7637L28.2706 15.92ZM23.1506 15.32V14.32H22.1506V15.32H23.1506ZM28.1106 25.44C26.9627 25.44 25.8431 25.3507 24.7513 25.173L24.4299 27.147C25.6315 27.3426 26.8586 27.44 28.1106 27.44V25.44ZM24.7513 25.173C23.6368 24.9916 22.6518 24.7733 21.7928 24.5206L21.2285 26.4394C22.1828 26.7201 23.2512 26.9551 24.4299 27.147L24.7513 25.173ZM21.8006 24.523C20.9572 24.2674 20.3224 24.0112 19.8725 23.7638L18.9087 25.5162C19.5255 25.8554 20.3041 26.1593 21.2206 26.437L21.8006 24.523ZM19.8725 23.7638C19.7634 23.7038 19.6785 23.6509 19.6141 23.6058C19.5487 23.56 19.5132 23.5284 19.4977 23.5129C19.481 23.4961 19.4999 23.5106 19.5255 23.5593C19.5533 23.612 19.5906 23.7092 19.5906 23.84H17.5906C17.5906 24.3428 17.8665 24.7101 18.0835 24.9271C18.3116 25.1552 18.6034 25.3483 18.9087 25.5162L19.8725 23.7638ZM19.5906 23.84C19.5906 23.2395 19.6638 22.3575 19.8219 21.1722L17.8394 20.9078C17.6774 22.1225 17.5906 23.1072 17.5906 23.84H19.5906ZM19.8187 21.1937C20.017 19.9191 20.1106 18.2066 20.1106 16.08H18.1106C18.1106 18.1667 18.0176 19.7609 17.8425 20.8863L19.8187 21.1937ZM20.1106 16.08V11.64H18.1106V16.08H20.1106ZM20.1106 11.64C20.1106 9.89964 20.1768 8.51782 20.3033 7.48105L18.318 7.23894C18.1777 8.38885 18.1106 9.86036 18.1106 11.64H20.1106ZM20.3006 7.50142C20.4587 6.39471 20.6124 5.57147 20.7582 5.01242L18.823 4.50758C18.6488 5.1752 18.4826 6.08529 18.3207 7.21858L20.3006 7.50142ZM19.7906 3.76H18.4306V5.76H19.7906V3.76ZM19.2321 4.16191L17.2321 1.48191L15.6292 2.67808L17.6292 5.35808L19.2321 4.16191ZM17.3251 2.52721L17.6451 1.88721L15.8562 0.992785L15.5362 1.63279L17.3251 2.52721ZM16.7506 2.44H19.9506V0.439998H16.7506V2.44ZM19.9506 2.44C21.2142 2.44 22.241 2.41323 23.0219 2.35746L22.8794 0.36254C22.1669 0.413432 21.1937 0.439998 19.9506 0.439998V2.44ZM23.0194 2.35763C23.7699 2.30587 24.5203 2.28 25.2706 2.28V0.28C24.4743 0.28 23.678 0.30746 22.8818 0.362368L23.0194 2.35763ZM25.2706 2.28C25.7593 2.28 26.3608 2.43123 27.092 2.80862L28.0093 1.03138C27.0871 0.555437 26.1686 0.28 25.2706 0.28V2.28ZM27.092 2.80862C27.8383 3.19384 28.556 3.69114 29.2446 4.30594L30.5766 2.81406C29.7719 2.09552 28.9162 1.49949 28.0093 1.03138L27.092 2.80862ZM29.2577 4.31741C29.9744 4.93524 30.5369 5.56216 30.9586 6.1947L32.6227 5.0853C32.0844 4.27783 31.3936 3.51809 30.5636 2.80259L29.2577 4.31741ZM30.9832 6.23001C31.4351 6.8483 31.5506 7.25305 31.5506 7.48H33.5506C33.5506 6.64028 33.1595 5.81836 32.598 5.04998L30.9832 6.23001ZM31.5506 7.48V9.28H33.5506V7.48H31.5506ZM31.5506 9.28C31.5506 10.398 31.3685 11.3571 31.0275 12.1754L32.8737 12.9446C33.3327 11.8429 33.5506 10.6154 33.5506 9.28H31.5506ZM31.0186 12.1976C30.7069 12.9992 30.2588 13.5796 29.6894 13.9863L30.8519 15.6137C31.7758 14.9538 32.4477 14.0408 32.8826 12.9224L31.0186 12.1976ZM29.6739 15.6025C30.6361 16.3179 31.2862 17.0318 31.6791 17.7303L33.4222 16.7497C32.8551 15.7415 31.9852 14.8288 30.8673 13.9975L29.6739 15.6025ZM31.698 17.7626C32.1013 18.4205 32.3106 19.1705 32.3106 20.04H34.3106C34.3106 18.8295 34.0133 17.7128 33.4032 16.7174L31.698 17.7626ZM32.3106 20.04V20.84H34.3106V20.04H32.3106ZM32.3106 20.84C32.3106 22.5525 31.8832 23.6532 31.2035 24.3329L32.6177 25.7471C33.8047 24.5601 34.3106 22.8608 34.3106 20.84H32.3106ZM31.1933 24.3432C30.5197 25.0367 29.5388 25.44 28.1106 25.44V27.44C29.9358 27.44 31.4882 26.91 32.6279 25.7368L31.1933 24.3432ZM26.9506 3.76C26.4338 3.76 25.8938 3.7887 25.3311 3.84496L25.5301 5.83504C26.0342 5.78463 26.5074 5.76 26.9506 5.76V3.76ZM25.3781 3.84138C24.8374 3.86984 24.2854 3.9266 23.7223 4.01106L24.019 5.98894C24.5225 5.9134 25.0105 5.86349 25.4832 5.83862L25.3781 3.84138ZM22.9026 4.74904C22.7043 5.51416 22.5248 6.44433 22.3617 7.53166L24.3396 7.82834C24.4965 6.78233 24.6637 5.92584 24.8386 5.25096L22.9026 4.74904ZM22.3587 7.55284C22.2185 8.64661 22.1506 9.91772 22.1506 11.36H24.1506C24.1506 9.97561 24.2161 8.79338 24.3425 7.80716L22.3587 7.55284ZM22.1506 11.36V12.12H24.1506V11.36H22.1506ZM23.1506 13.12H25.5906V11.12H23.1506V13.12ZM25.5906 13.12C26.2665 13.12 26.9026 13.028 27.4834 12.823L26.8178 10.937C26.492 11.052 26.0881 11.12 25.5906 11.12V13.12ZM27.5314 12.8047C28.2653 12.5025 28.7792 11.9289 29.1025 11.2104L27.2787 10.3896C27.122 10.7378 26.9426 10.8842 26.7699 10.9553L27.5314 12.8047ZM29.0851 11.2472C29.4562 10.5049 29.5906 9.51774 29.5906 8.4H27.5906C27.5906 9.41559 27.4584 10.0284 27.2962 10.3528L29.0851 11.2472ZM29.5906 8.4V6.8H27.5906V8.4H29.5906ZM29.5906 6.8C29.5906 6.35682 29.558 5.94398 29.4762 5.58049C29.3967 5.22697 29.2534 4.84154 28.9739 4.53103L27.4873 5.86896C27.4479 5.82512 27.4846 5.83969 27.525 6.01951C27.5632 6.18935 27.5906 6.44318 27.5906 6.8H29.5906ZM29.0046 4.56676C28.483 3.92925 27.6805 3.76 26.9506 3.76V5.76C27.1837 5.76 27.3269 5.78864 27.4055 5.81568C27.4769 5.84022 27.4751 5.85576 27.4567 5.83324L29.0046 4.56676ZM22.1506 17.88C22.1506 18.9582 22.1243 19.8959 22.0727 20.6956L24.0686 20.8244C24.1236 19.9708 24.1506 18.9885 24.1506 17.88H22.1506ZM22.0728 20.6935C22.0205 21.4791 21.9553 22.1946 21.8777 22.8409L23.8635 23.0791C23.946 22.392 24.0141 21.6409 24.0684 20.8265L22.0728 20.6935ZM22.6373 23.9324C23.3749 24.1094 24.1066 24.2 24.8306 24.2V22.2C24.2746 22.2 23.6996 22.1306 23.104 21.9876L22.6373 23.9324ZM24.8306 24.2C26.5486 24.2 28.0482 23.8293 28.9519 22.7685L27.4294 21.4715C27.1063 21.8507 26.366 22.2 24.8306 22.2V24.2ZM28.938 22.7844C29.7744 21.8435 30.1506 20.6424 30.1506 19.28H28.1506C28.1506 20.2643 27.8869 20.9565 27.4432 21.4556L28.938 22.7844ZM30.1506 19.28V18.64H28.1506V19.28H30.1506ZM30.1506 18.64C30.1506 17.8632 30.0729 17.162 29.8821 16.5722C29.6902 15.9791 29.3591 15.4273 28.8075 15.0763L27.7338 16.7637C27.7688 16.786 27.8777 16.8743 27.9792 17.1878C28.0817 17.5047 28.1506 17.9768 28.1506 18.64H30.1506ZM28.834 15.0938C28.0281 14.5443 27.0225 14.32 25.9106 14.32V16.32C26.7721 16.32 27.3399 16.4957 27.7073 16.7462L28.834 15.0938ZM25.9106 14.32H23.1506V16.32H25.9106V14.32ZM22.1506 15.32V17.88H24.1506V15.32H22.1506Z" fill="#C8C8C8" mask="url(#path-1-outside-1_67_2)"/>
</svg>
